<svg version="1.1" xmlns="http://www.w3.org/2000/svg"
  width="1536pt" height="1536pt" viewBox="0 0 1536 1536">
  <rect width="1536" height="1536" fill="white"/>
  <g transform="translate(0.000000,1536.000000) scale(0.100000,-0.100000)" fill="#E8391D">
<path d="M4568 8073 c7 -3 16 -2 19 1 4 3 -2 6 -13 5 -11 0 -14 -3 -6 -6z"/>
<path d="M4380 8050 c-18 -12 -2 -12 25 0 13 6 15 9 5 9 -8 0 -22 -4 -30 -9z"/>
<path d="M4275 8040 l-40 -7 35 0 c19 -1 49 3 65 7 27 7 27 8 5 7 -14 0 -43
-3 -65 -7z"/>
<path d="M4178 8023 c12 -2 30 -2 40 0 9 3 -1 5 -23 4 -22 0 -30 -2 -17 -4z"/>
<path d="M4113 8013 c9 -2 23 -2 30 0 6 3 -1 5 -18 5 -16 0 -22 -2 -12 -5z"/>
<path d="M4028 8003 c7 -3 16 -2 19 1 4 3 -2 6 -13 5 -11 0 -14 -3 -6 -6z"/>
<path d="M3963 7993 c9 -2 25 -2 35 0 9 3 1 5 -18 5 -19 0 -27 -2 -17 -5z"/>
<path d="M8418 7583 c7 -3 16 -2 19 1 4 3 -2 6 -13 5 -11 0 -14 -3 -6 -6z"/>
<path d="M8090 7560 c0 -6 11 -8 28 -4 39 10 40 14 4 14 -18 0 -32 -5 -32 -10z"/>
<path d="M9230 7540 c19 -13 30 -13 30 0 0 6 -10 10 -22 10 -19 0 -20 -2 -8
-10z"/>
<path d="M9448 7523 c6 -2 18 -2 25 0 6 3 1 5 -13 5 -14 0 -19 -2 -12 -5z"/>
<path d="M9953 7235 c0 -27 2 -38 4 -22 2 15 2 37 0 50 -2 12 -4 0 -4 -28z"/>
<path d="M4545 7340 c11 -5 27 -9 35 -9 13 -1 13 0 0 9 -8 5 -24 9 -35 9 l-20
0 20 -9z"/>
<path d="M3711 7243 c10 -21 19 -45 19 -55 0 -10 5 -18 10 -18 6 0 10 -4 10
-10 0 -14 72 -142 77 -137 2 3 -19 49 -46 103 -28 55 -55 111 -60 127 -6 15
-15 27 -20 27 -5 0 0 -17 10 -37z"/>
<path d="M5258 7183 c7 -3 16 -2 19 1 4 3 -2 6 -13 5 -11 0 -14 -3 -6 -6z"/>
<path d="M3844 6975 c6 -19 16 -35 23 -35 8 0 5 12 -8 35 -12 19 -22 35 -23
35 -2 0 2 -16 8 -35z"/>
  </g>
  <g transform="translate(0.000000,1536.000000) scale(0.100000,-0.100000)" fill="#111111">
<path d="M9255 9262 l-80 -16 98 -7 c158 -11 245 -64 308 -187 34 -68 33 -185
-2 -262 -94 -204 -399 -282 -601 -152 -72 47 -113 108 -129 196 -15 79 -2 163
34 223 l22 37 -24 -16 c-53 -38 -155 -169 -192 -248 -98 -208 -80 -451 44
-615 98 -129 258 -228 438 -272 115 -28 413 -25 532 5 186 46 365 146 468 260
59 66 121 178 140 254 16 68 6 240 -18 310 -75 216 -283 389 -569 474 -117 35
-344 43 -469 16z"/>
<path d="M4623 8083 c9 -2 23 -2 30 0 6 3 -1 5 -18 5 -16 0 -22 -2 -12 -5z"/>
<path d="M4553 8073 c9 -2 25 -2 35 0 9 3 1 5 -18 5 -19 0 -27 -2 -17 -5z"/>
<path d="M4483 8063 c9 -2 23 -2 30 0 6 3 -1 5 -18 5 -16 0 -22 -2 -12 -5z"/>
<path d="M13100 8063 c-14 -3 -139 -43 -279 -89 -248 -82 -429 -134 -470 -134
-23 0 -35 -23 -82 -160 -17 -52 -40 -111 -50 -130 -22 -40 -25 -57 -6 -38 13
14 34 64 90 217 l34 94 99 23 c55 12 222 63 373 113 259 87 278 92 365 93 60
1 81 4 61 9 -34 7 -97 9 -135 2z"/>
<path d="M4340 8050 c-25 -4 -91 -13 -147 -20 -57 -7 -103 -17 -103 -21 0 -5
12 -6 28 -3 15 3 99 16 187 28 88 13 142 24 120 24 -22 0 -60 -4 -85 -8z"/>
<path d="M2298 8024 c-29 -9 -59 -28 -80 -51 -18 -20 -54 -57 -79 -82 -99
-100 -123 -178 -77 -258 65 -115 122 -193 142 -193 5 0 -4 15 -21 33 -17 17
-51 64 -74 102 -41 65 -44 75 -44 140 0 78 -8 64 113 199 78 88 135 115 235
116 59 0 86 -7 230 -64 269 -106 594 -218 572 -197 -6 5 -37 16 -70 26 -68 19
-276 95 -445 161 -213 85 -211 84 -285 83 -38 0 -91 -7 -117 -15z"/>
<path d="M13310 8030 c8 -5 20 -10 25 -10 6 0 3 5 -5 10 -8 5 -19 10 -25 10
-5 0 -3 -5 5 -10z"/>
<path d="M13381 7992 c54 -46 92 -101 105 -152 13 -45 13 -45 13 -10 1 52 -59
137 -124 175 -27 16 -26 15 6 -13z"/>
<path d="M8418 7583 c12 -2 32 -2 45 0 12 2 2 4 -23 4 -25 0 -35 -2 -22 -4z"/>
<path d="M11420 7568 c-41 -11 -147 -35 -235 -53 -88 -18 -152 -34 -143 -34
23 -1 310 56 372 75 27 8 54 14 58 14 19 0 -40 -69 -156 -184 -67 -66 -107
-109 -91 -97 85 63 308 303 278 300 -4 0 -42 -10 -83 -21z"/>
<path d="M10850 7455 c-69 -12 -116 -23 -106 -24 19 -1 252 36 271 44 27 10
-53 0 -165 -20z"/>
<path d="M10673 7423 c9 -2 25 -2 35 0 9 3 1 5 -18 5 -19 0 -27 -2 -17 -5z"/>
<path d="M5141 7416 c7 -8 221 -66 238 -65 9 0 -38 15 -104 34 -119 34 -142
39 -134 31z"/>
<path d="M10603 7413 c9 -2 25 -2 35 0 9 3 1 5 -18 5 -19 0 -27 -2 -17 -5z"/>
<path d="M10533 7403 c9 -2 25 -2 35 0 9 3 1 5 -18 5 -19 0 -27 -2 -17 -5z"/>
<path d="M10473 7393 c9 -2 23 -2 30 0 6 3 -1 5 -18 5 -16 0 -22 -2 -12 -5z"/>
<path d="M10335 7380 c-48 -7 -49 -7 -10 -8 22 0 58 3 80 7 33 7 35 9 10 8
-16 0 -52 -3 -80 -7z"/>
<path d="M10055 7354 l-130 -13 125 5 c69 3 150 9 180 13 l55 9 -50 -1 c-27 0
-108 -6 -180 -13z"/>
<path d="M5402 7345 c7 -7 204 -45 226 -44 17 1 -191 48 -217 49 -8 0 -12 -2
-9 -5z"/>
  </g>
</svg>